<mxfile host="app.diagrams.net" modified="2023-04-24T03:24:25.431Z" agent="Mozilla/5.0 (Macintosh; Intel Mac OS X 10_15_7) AppleWebKit/537.36 (KHTML, like Gecko) Chrome/112.0.0.0 Safari/537.36" version="21.1.4" etag="6u_1hXaHJBmYu-tEUvyS" type="github">
  <diagram name="Page-1" id="9Vy2Kv-hcC_vEhuKato4">
    <mxGraphModel>
      <root>
        <mxCell id="0" />
        <mxCell id="1" parent="0" />
      </root>
    </mxGraphModel>
  </diagram>
</mxfile>
